<svg xmlns="http://www.w3.org/2000/svg" version="1.1" xmlns:xlink="http://www.w3.org/1999/xlink" xmlns:svgjs="http://svgjs.dev/svgjs" width="1500" height="416" viewBox="0 0 1500 416"><g transform="matrix(1,0,0,1,-0.9090909090909918,-0.006667421109710858)"><svg viewBox="0 0 396 110" data-background-color="#ffffff" preserveAspectRatio="xMidYMid meet" height="416" width="1500" xmlns="http://www.w3.org/2000/svg" xmlns:xlink="http://www.w3.org/1999/xlink"><g id="tight-bounds" transform="matrix(1,0,0,1,0.2400000000000091,0.0017630200049723044)"><svg viewBox="0 0 395.52 108.99647395999006" height="108.99647395999006" width="395.52"><g><svg viewBox="0 0 395.52 108.99647395999006" height="108.99647395999006" width="395.52"><g><svg viewBox="0 0 395.52 108.99647395999006" height="108.99647395999006" width="395.52"><g id="textblocktransform"><svg viewBox="0 0 395.52 108.99647395999006" height="108.99647395999006" width="395.52" id="textblock"><g><rect width="395.52" height="86.28747922097779" fill="none" stroke-width="8.962371322224001" stroke="#d7dbde" data-fill-palette-color="none" data-stroke-palette-color="tertiary"></rect><rect width="395.52" height="23.708994739012265" y="86.28747922097779" fill="#d7dbde" data-fill-palette-color="tertiary"></rect></g><g><svg viewBox="0 0 395.52 85.28747922097779" height="85.28747922097779" width="395.52"><g transform="matrix(1,0,0,1,23.461705032,23.461705032)"><svg width="348.596589936" viewBox="1.3 -35.7 330.72999999999996 36.400000000000006" height="38.36406915697778" data-palette-color="#d7dbde"><path d="M4.95 0L1.3 0 14.75-35 17.85-35 31.3 0 27.65 0 21.45-16.4 10.1-16.4 4.95 0ZM15.4-32.4L15.1-32.4 10.45-17.6 21-17.6 15.4-32.4ZM37.9-14L37.9-35 41.3-35 41.3-13.9Q41.3-7.85 44.27-4.48 47.25-1.1 52.65-1.1L52.65-1.1Q56.05-1.1 58.57-2.43 61.1-3.75 62.47-6.1 63.85-8.45 63.75-11.5L63.75-11.5 62.9-35 66.3-35 65.45-11.5Q65.25-5.5 61.87-2.4 58.5 0.7 52.25 0.7L52.25 0.7Q45.5 0.7 41.7-3.23 37.9-7.15 37.9-14L37.9-14ZM89.3 0L78.3 0 78.3-35 89.3-35Q95.09-35 99.4-32.8 103.7-30.6 106.09-26.68 108.5-22.75 108.5-17.5L108.5-17.5Q108.5-12.25 106.09-8.33 103.7-4.4 99.4-2.2 95.09 0 89.3 0L89.3 0ZM89.3-33.8L89.3-33.8 81.7-33.8 81.7-1.2 89.3-1.2Q96.55-1.2 100.62-5.5 104.69-9.8 104.69-17.5L104.69-17.5Q104.69-25.2 100.62-29.5 96.55-33.8 89.3-33.8ZM122.39 0L118.99 0 118.99-35 122.39-35 122.39 0ZM146.79 0L143.39 0 143.39-34Q142.64-34 140.29-33.7L140.29-33.7 130.49-32.45 130.49-35 159.69-35 159.69-32.45 149.89-33.7Q147.54-34 146.79-34L146.79-34 146.79 0ZM163.79-17.5L163.79-17.5Q163.79-21.35 165.16-24.68 166.54-28 169.01-30.48 171.49-32.95 174.81-34.33 178.14-35.7 181.99-35.7L181.99-35.7Q185.84-35.7 189.16-34.33 192.49-32.95 194.96-30.48 197.44-28 198.81-24.68 200.19-21.35 200.19-17.5L200.19-17.5Q200.19-13.65 198.81-10.33 197.44-7 194.96-4.53 192.49-2.05 189.16-0.68 185.84 0.7 181.99 0.7L181.99 0.7Q178.14 0.7 174.81-0.68 171.49-2.05 169.01-4.53 166.54-7 165.16-10.33 163.79-13.65 163.79-17.5ZM167.59-17.5L167.59-17.5Q167.59-12.4 169.39-8.58 171.19-4.75 174.44-2.63 177.69-0.5 181.99-0.5L181.99-0.5Q186.29-0.5 189.54-2.63 192.79-4.75 194.59-8.6 196.39-12.45 196.39-17.5L196.39-17.5Q196.39-22.55 194.59-26.38 192.79-30.2 189.54-32.35 186.29-34.5 181.99-34.5L181.99-34.5Q177.69-34.5 174.46-32.38 171.24-30.25 169.41-26.43 167.59-22.6 167.59-17.5ZM210.69 0L210.69-35 217.39-35Q222.69-35 225.61-32.77 228.54-30.55 228.54-26.55L228.54-26.55Q228.54-23.45 226.71-21.4 224.89-19.35 221.44-18.65L221.44-18.65 221.44-18.35Q224.74-17.7 226.84-15.25 228.94-12.8 229.99-9.2L229.99-9.2Q230.94-5.9 231.86-4.08 232.79-2.25 233.91-1.45 235.04-0.65 236.59-0.3L236.59-0.3 236.59 0 234.54 0Q232.34 0 230.91-0.8 229.49-1.6 228.49-3.5 227.49-5.4 226.59-8.75L226.59-8.75Q225.14-13.9 222.74-16.05 220.34-18.2 216.89-18.2L216.89-18.2 216.59-18.2 216.59-19.1 216.89-19.1Q224.94-19.1 224.94-26.5L224.94-26.5Q224.94-33.8 217.39-33.8L217.39-33.8 214.09-33.8 214.09 0 210.69 0ZM246.18 0L242.78 0 242.78-35 246.18-35 246.18 0ZM258.68-14L258.68-35 262.08-35 262.08-13.9Q262.08-7.85 265.06-4.48 268.03-1.1 273.43-1.1L273.43-1.1Q276.83-1.1 279.36-2.43 281.88-3.75 283.26-6.1 284.63-8.45 284.53-11.5L284.53-11.5 283.68-35 287.08-35 286.23-11.5Q286.03-5.5 282.66-2.4 279.28 0.7 273.03 0.7L273.03 0.7Q266.28 0.7 262.48-3.23 258.68-7.15 258.68-14L258.68-14ZM328.43-35L332.03-35 332.03 0 328.63 0 328.63-32.1 328.33-32.1 316.23-8.9 314.68-8.9 300.93-29.35 300.63-29.35 301.73 0 298.33 0 299.58-35.7 300.58-35.7 316.33-12.3 316.63-12.3 328.43-35Z" opacity="1" transform="matrix(1,0,0,1,0,0)" fill="#d7dbde" class="wordmark-text-0" data-fill-palette-color="primary" id="text-0"></path></svg></g></svg></g><g transform="matrix(1,0,0,1,85.87333906775996,85.28747922097779)"><svg viewBox="0 0 223.77332186448007 23.70899473901226" height="23.70899473901226" width="223.77332186448007"><g transform="matrix(1,0,0,1,20,3.2)"><svg width="183.77332186448007" viewBox="4.69 -37.35 511.88000000000005 48.21" height="17.308994739012263" data-palette-color="#ffffff"><path d="M15.36 0L4.69 0 4.69-33.84 14.58-33.84Q19.75-33.84 22.96-31.9 26.17-29.96 26.17-25.56L26.17-25.56Q26.17-23.05 24.87-21.03 23.56-19.02 21.17-18.24L21.17-18.24 21.17-18.02Q24.22-17.41 26.17-15.39 28.13-13.38 28.13-9.89L28.13-9.89Q28.13-6.59 26.51-4.39 24.9-2.2 22.02-1.1 19.14 0 15.36 0L15.36 0ZM8.69-30.59L8.69-19.36 13.79-19.36Q18.24-19.36 20.21-20.89 22.19-22.41 22.19-25.02L22.19-25.02Q22.19-28.08 20.13-29.33 18.07-30.59 14.01-30.59L14.01-30.59 8.69-30.59ZM8.69-16.28L8.69-3.17 14.72-3.17Q19.17-3.17 21.67-4.85 24.17-6.52 24.17-9.99L24.17-9.99Q24.17-13.18 21.7-14.73 19.24-16.28 14.72-16.28L14.72-16.28 8.69-16.28ZM44.14 0.61L44.14 0.61Q41.11 0.61 38.49-0.93 35.86-2.47 34.26-5.38 32.66-8.3 32.66-12.45L32.66-12.45Q32.66-16.63 34.26-19.57 35.86-22.51 38.49-24.06 41.11-25.61 44.14-25.61L44.14-25.61Q47.21-25.61 49.85-24.06 52.49-22.51 54.09-19.57 55.69-16.63 55.69-12.45L55.69-12.45Q55.69-8.3 54.09-5.38 52.49-2.47 49.85-0.93 47.21 0.61 44.14 0.61ZM44.14-2.66L44.14-2.66Q47.48-2.66 49.56-5.36 51.63-8.06 51.63-12.45L51.63-12.45Q51.63-16.87 49.56-19.59 47.48-22.31 44.14-22.31L44.14-22.31Q41.97-22.31 40.28-21.07 38.6-19.82 37.66-17.61 36.72-15.41 36.72-12.45L36.72-12.45Q36.72-8.06 38.79-5.36 40.87-2.66 44.14-2.66ZM72.02 0.61L72.02 0.61Q68.99 0.61 66.36-0.93 63.74-2.47 62.14-5.38 60.54-8.3 60.54-12.45L60.54-12.45Q60.54-16.63 62.14-19.57 63.74-22.51 66.36-24.06 68.99-25.61 72.02-25.61L72.02-25.61Q75.09-25.61 77.73-24.06 80.37-22.51 81.97-19.57 83.56-16.63 83.56-12.45L83.56-12.45Q83.56-8.3 81.97-5.38 80.37-2.47 77.73-0.93 75.09 0.61 72.02 0.61ZM72.02-2.66L72.02-2.66Q75.36-2.66 77.44-5.36 79.51-8.06 79.51-12.45L79.51-12.45Q79.51-16.87 77.44-19.59 75.36-22.31 72.02-22.31L72.02-22.31Q69.84-22.31 68.16-21.07 66.47-19.82 65.53-17.61 64.59-15.41 64.59-12.45L64.59-12.45Q64.59-8.06 66.67-5.36 68.75-2.66 72.02-2.66ZM94.18 0L90.28 0 90.28-36.74 94.18-36.74 94.18-11.57 94.33-11.57 105.22-24.98 109.64-24.98 101.29-14.94 110.78 0 106.46 0 99.04-12.21 94.18-6.64 94.18 0ZM131.87 10.86L131.87 10.86Q131.04 10.86 130.31 10.71 129.58 10.55 128.99 10.3L128.99 10.3 129.82 7.2Q130.29 7.35 130.77 7.46 131.26 7.57 131.68 7.57L131.68 7.57Q133.85 7.57 135.24 5.98 136.63 4.39 137.44 2L137.44 2 138.07 0.1 127.97-24.98 132.04-24.98 137.29-10.86Q137.88-9.23 138.51-7.39 139.15-5.54 139.76-3.81L139.76-3.81 139.98-3.81Q140.51-5.54 141.05-7.37 141.59-9.2 142.08-10.86L142.08-10.86 146.72-24.98 150.6-24.98 141.1 2.2Q140.25 4.61 139.04 6.58 137.83 8.54 136.08 9.7 134.34 10.86 131.87 10.86ZM165.1 0.61L165.1 0.61Q162.07 0.61 159.45-0.93 156.82-2.47 155.22-5.38 153.62-8.3 153.62-12.45L153.62-12.45Q153.62-16.63 155.22-19.57 156.82-22.51 159.45-24.06 162.07-25.61 165.1-25.61L165.1-25.61Q168.17-25.61 170.81-24.06 173.45-22.51 175.05-19.57 176.65-16.63 176.65-12.45L176.65-12.45Q176.65-8.3 175.05-5.38 173.45-2.47 170.81-0.93 168.17 0.61 165.1 0.61ZM165.1-2.66L165.1-2.66Q168.44-2.66 170.52-5.36 172.59-8.06 172.59-12.45L172.59-12.45Q172.59-16.87 170.52-19.59 168.44-22.31 165.1-22.31L165.1-22.31Q162.92-22.31 161.24-21.07 159.56-19.82 158.62-17.61 157.68-15.41 157.68-12.45L157.68-12.45Q157.68-8.06 159.75-5.36 161.83-2.66 165.1-2.66ZM190.66 0.61L190.66 0.61Q186.73 0.61 184.88-1.86 183.04-4.32 183.04-9.11L183.04-9.11 183.04-24.98 186.95-24.98 186.95-9.62Q186.95-6.08 188.11-4.46 189.26-2.83 191.85-2.83L191.85-2.83Q193.81-2.83 195.36-3.85 196.91-4.86 198.76-7.15L198.76-7.15 198.76-24.98 202.67-24.98 202.67 0 199.42 0 199.08-3.96 198.91-3.96Q197.17-1.9 195.2-0.65 193.22 0.61 190.66 0.61ZM215.24 0L211.28 0 211.28-24.98 214.58-24.98 214.95-20.46 215.04-20.46Q216.36-22.8 218.19-24.21 220.02-25.61 222.15-25.61L222.15-25.61Q223.76-25.61 224.78-25.1L224.78-25.1 223.91-21.73Q223.37-21.9 222.89-21.97 222.42-22.05 221.64-22.05L221.64-22.05Q220.05-22.05 218.29-20.74 216.53-19.43 215.24-16.16L215.24-16.16 215.24 0ZM249.71 0L245.73 0 245.73-29.2Q245.73-32.98 247.5-35.17 249.27-37.35 252.9-37.35L252.9-37.35Q253.98-37.35 255.09-37.11 256.2-36.87 256.96-36.52L256.96-36.52 256.08-33.64Q254.49-34.16 253.25-34.16L253.25-34.16Q249.71-34.16 249.71-29.15L249.71-29.15 249.71 0ZM255.05-21.73L242.33-21.73 242.33-24.78 245.87-24.98 255.05-24.98 255.05-21.73ZM265.6 0.61L265.6 0.61Q262.47 0.61 260.37-1.21 258.27-3.03 258.27-6.42L258.27-6.42Q258.27-10.52 262-12.72 265.72-14.92 273.75-15.82L273.75-15.82Q273.75-17.48 273.3-18.97 272.85-20.46 271.71-21.41 270.58-22.36 268.48-22.36L268.48-22.36Q266.26-22.36 264.32-21.51 262.37-20.65 260.91-19.73L260.91-19.73 259.37-22.36Q261.03-23.51 263.56-24.56 266.09-25.61 269.11-25.61L269.11-25.61Q273.68-25.61 275.69-22.8 277.71-20 277.71-15.41L277.71-15.41 277.71 0 274.41 0 274.09-3.03 273.95-3.03Q272.14-1.54 270.03-0.46 267.92 0.61 265.6 0.61ZM266.67-2.56L266.67-2.56Q268.55-2.56 270.2-3.44 271.85-4.32 273.75-5.96L273.75-5.96 273.75-13.18Q269.43-12.65 266.89-11.77 264.35-10.89 263.25-9.64 262.16-8.4 262.16-6.74L262.16-6.74Q262.16-4.52 263.47-3.54 264.79-2.56 266.67-2.56ZM295.67 0L291.08 0 282.03-24.98 286.1-24.98 290.99-10.6Q291.55-8.74 292.13-6.88 292.72-5.03 293.3-3.22L293.3-3.22 293.52-3.22Q294.09-5.03 294.7-6.88 295.31-8.74 295.84-10.6L295.84-10.6 300.73-24.98 304.58-24.98 295.67 0ZM319.11 0.61L319.11 0.61Q316.08 0.61 313.46-0.93 310.83-2.47 309.23-5.38 307.63-8.3 307.63-12.45L307.63-12.45Q307.63-16.63 309.23-19.57 310.83-22.51 313.46-24.06 316.08-25.61 319.11-25.61L319.11-25.61Q322.18-25.61 324.82-24.06 327.46-22.51 329.06-19.57 330.66-16.63 330.66-12.45L330.66-12.45Q330.66-8.3 329.06-5.38 327.46-2.47 324.82-0.93 322.18 0.61 319.11 0.61ZM319.11-2.66L319.11-2.66Q322.45-2.66 324.53-5.36 326.6-8.06 326.6-12.45L326.6-12.45Q326.6-16.87 324.53-19.59 322.45-22.31 319.11-22.31L319.11-22.31Q316.94-22.31 315.25-21.07 313.57-19.82 312.63-17.61 311.69-15.41 311.69-12.45L311.69-12.45Q311.69-8.06 313.76-5.36 315.84-2.66 319.11-2.66ZM341.32 0L337.37 0 337.37-24.98 340.66-24.98 341.03-20.46 341.13-20.46Q342.45-22.8 344.28-24.21 346.11-25.61 348.23-25.61L348.23-25.61Q349.84-25.61 350.87-25.1L350.87-25.1 349.99-21.73Q349.45-21.9 348.98-21.97 348.5-22.05 347.72-22.05L347.72-22.05Q346.13-22.05 344.37-20.74 342.62-19.43 341.32-16.16L341.32-16.16 341.32 0ZM359 0L355.04 0 355.04-24.98 359-24.98 359 0ZM357.09-30.25L357.09-30.25Q355.9-30.25 355.16-30.99 354.43-31.74 354.43-32.98L354.43-32.98Q354.43-34.13 355.16-34.86 355.9-35.6 357.09-35.6L357.09-35.6Q358.29-35.6 359.02-34.86 359.75-34.13 359.75-32.98L359.75-32.98Q359.75-31.74 359.02-30.99 358.29-30.25 357.09-30.25ZM375.33 0.61L375.33 0.61Q371.4 0.61 369.86-1.66 368.32-3.93 368.32-7.62L368.32-7.62 368.32-21.73 364.61-21.73 364.61-24.78 368.54-24.98 369-33.08 372.3-33.08 372.3-24.98 379.16-24.98 379.16-21.73 372.3-21.73 372.3-7.52Q372.3-5.2 373.15-3.91 374.01-2.61 376.21-2.61L376.21-2.61Q376.86-2.61 377.6-2.75 378.33-2.88 379.09-3.22L379.09-3.22 379.96-0.44Q378.96 0 377.77 0.31 376.57 0.61 375.33 0.61ZM394.85 0.61L394.85 0.61Q391.56 0.61 388.86-0.95 386.16-2.51 384.56-5.44 382.97-8.37 382.97-12.45L382.97-12.45Q382.97-16.53 384.56-19.48 386.16-22.44 388.73-24.02 391.29-25.61 394.15-25.61L394.15-25.61Q398.86-25.61 401.45-22.46 404.03-19.31 404.03-13.89L404.03-13.89Q404.03-12.52 403.89-11.57L403.89-11.57 386.87-11.57Q387.07-7.5 389.36-5 391.66-2.51 395.32-2.51L395.32-2.51Q397.2-2.51 398.76-3.02 400.32-3.52 401.67-4.42L401.67-4.42 403.06-1.95Q401.42-0.83 399.44-0.11 397.47 0.61 394.85 0.61ZM386.82-14.43L386.82-14.43 400.54-14.43Q400.54-18.36 398.88-20.41 397.22-22.46 394.2-22.46L394.2-22.46Q391.49-22.46 389.35-20.36 387.21-18.26 386.82-14.43ZM432.86 0.61L432.86 0.61Q430.08 0.61 427.69-0.33 425.29-1.27 423.59-2.93L423.59-2.93 425.44-5.25Q427.03-3.93 428.82-3.2 430.62-2.47 433.01-2.47L433.01-2.47Q435.52-2.47 436.79-3.67 438.06-4.88 438.06-6.54L438.06-6.54Q438.06-7.86 437.23-8.73 436.4-9.59 435.1-10.21 433.79-10.82 432.35-11.33L432.35-11.33Q430.49-12.01 428.81-12.92 427.13-13.82 426.05-15.19 424.98-16.55 424.98-18.6L424.98-18.6Q424.98-21.53 427.2-23.57 429.42-25.61 433.47-25.61L433.47-25.61Q435.79-25.61 437.76-24.82 439.72-24.02 441.16-22.83L441.16-22.83 439.36-20.51Q438.04-21.46 436.63-21.98 435.23-22.51 433.52-22.51L433.52-22.51Q431.06-22.51 429.92-21.37 428.79-20.24 428.79-18.8L428.79-18.8Q428.79-17.02 430.3-16.11 431.81-15.21 434.08-14.36L434.08-14.36Q436.06-13.67 437.84-12.78 439.63-11.89 440.75-10.47 441.87-9.06 441.87-6.74L441.87-6.74Q441.87-3.71 439.55-1.55 437.23 0.61 432.86 0.61ZM451.81 10.64L447.85 10.64 447.85-24.98 451.15-24.98 451.51-22.09 451.61-22.09Q453.32-23.49 455.41-24.55 457.49-25.61 459.64-25.61L459.64-25.61Q464.53-25.61 467.06-22.14 469.6-18.68 469.6-12.87L469.6-12.87Q469.6-8.62 468.09-5.6 466.58-2.59 464.1-0.99 461.62 0.61 458.71 0.61L458.71 0.61Q457.01 0.61 455.25-0.15 453.49-0.9 451.71-2.29L451.71-2.29 451.81 2.1 451.81 10.64ZM458.1-2.71L458.1-2.71Q461.3-2.71 463.41-5.43 465.53-8.15 465.53-12.82L465.53-12.82Q465.53-17.04 463.94-19.68 462.35-22.31 458.71-22.31L458.71-22.31Q457.08-22.31 455.39-21.4 453.71-20.48 451.81-18.75L451.81-18.75 451.81-5.4Q453.59-3.93 455.21-3.32 456.83-2.71 458.1-2.71ZM485.96 0.61L485.96 0.61Q482.93 0.61 480.31-0.93 477.68-2.47 476.08-5.38 474.48-8.3 474.48-12.45L474.48-12.45Q474.48-16.63 476.08-19.57 477.68-22.51 480.31-24.06 482.93-25.61 485.96-25.61L485.96-25.61Q489.03-25.61 491.67-24.06 494.31-22.51 495.91-19.57 497.51-16.63 497.51-12.45L497.51-12.45Q497.51-8.3 495.91-5.38 494.31-2.47 491.67-0.93 489.03 0.61 485.96 0.61ZM485.96-2.66L485.96-2.66Q489.3-2.66 491.38-5.36 493.45-8.06 493.45-12.45L493.45-12.45Q493.45-16.87 491.38-19.59 489.3-22.31 485.96-22.31L485.96-22.31Q483.79-22.31 482.1-21.07 480.42-19.82 479.48-17.61 478.54-15.41 478.54-12.45L478.54-12.45Q478.54-8.06 480.61-5.36 482.69-2.66 485.96-2.66ZM511.93 0.61L511.93 0.61Q508 0.61 506.46-1.66 504.93-3.93 504.93-7.62L504.93-7.62 504.93-21.73 501.21-21.73 501.21-24.78 505.15-24.98 505.61-33.08 508.9-33.08 508.9-24.98 515.77-24.98 515.77-21.73 508.9-21.73 508.9-7.52Q508.9-5.2 509.76-3.91 510.61-2.61 512.81-2.61L512.81-2.61Q513.47-2.61 514.2-2.75 514.94-2.88 515.69-3.22L515.69-3.22 516.57-0.44Q515.57 0 514.37 0.31 513.18 0.61 511.93 0.61Z" opacity="1" transform="matrix(1,0,0,1,0,0)" fill="#ffffff" class="slogan-text-1" data-fill-palette-color="quaternary" id="text-1"></path></svg></g></svg></g></svg></g></svg></g><g></g></svg></g><defs></defs></svg><rect width="395.52" height="108.99647395999006" fill="none" stroke="none" visibility="hidden"></rect></g></svg></g></svg>